<?xml version="1.0" standalone="no"?>
<svg xmlns:xlink="http://www.w3.org/1999/xlink" id="wave" style="transform:rotate(0deg); transition: 0.3s" viewBox="0 0 1440 460" version="1.1" xmlns="http://www.w3.org/2000/svg"><defs><linearGradient id="sw-gradient-0" x1="0" x2="0" y1="1" y2="0"><stop stop-color="rgba(166.526, 53.691, 17.452, 1)" offset="0%" data-darkreader-inline-stopcolor="" style="--darkreader-inline-stopcolor:#862f14;"/><stop stop-color="rgba(11, 23.57, 255, 1)" offset="100%" data-darkreader-inline-stopcolor="" style="--darkreader-inline-stopcolor:#0611c2;"/></linearGradient></defs><path style="transform:translate(0, 0px); opacity:1" fill="url(#sw-gradient-0)" d="M0,184L80,184C160,184,320,184,480,153.3C640,123,800,61,960,46C1120,31,1280,61,1440,115C1600,169,1760,245,1920,253C2080,261,2240,199,2400,207C2560,215,2720,291,2880,314.3C3040,337,3200,307,3360,253C3520,199,3680,123,3840,76.7C4000,31,4160,15,4320,23C4480,31,4640,61,4800,61.3C4960,61,5120,31,5280,38.3C5440,46,5600,92,5760,115C5920,138,6080,138,6240,115C6400,92,6560,46,6720,38.3C6880,31,7040,61,7200,122.7C7360,184,7520,276,7680,276C7840,276,8000,184,8160,184C8320,184,8480,276,8640,299C8800,322,8960,276,9120,230C9280,184,9440,138,9600,130.3C9760,123,9920,153,10080,138C10240,123,10400,61,10560,69C10720,77,10880,153,11040,168.7C11200,184,11360,138,11440,115L11520,92L11520,460L11440,460C11360,460,11200,460,11040,460C10880,460,10720,460,10560,460C10400,460,10240,460,10080,460C9920,460,9760,460,9600,460C9440,460,9280,460,9120,460C8960,460,8800,460,8640,460C8480,460,8320,460,8160,460C8000,460,7840,460,7680,460C7520,460,7360,460,7200,460C7040,460,6880,460,6720,460C6560,460,6400,460,6240,460C6080,460,5920,460,5760,460C5600,460,5440,460,5280,460C5120,460,4960,460,4800,460C4640,460,4480,460,4320,460C4160,460,4000,460,3840,460C3680,460,3520,460,3360,460C3200,460,3040,460,2880,460C2720,460,2560,460,2400,460C2240,460,2080,460,1920,460C1760,460,1600,460,1440,460C1280,460,1120,460,960,460C800,460,640,460,480,460C320,460,160,460,80,460L0,460Z"/><defs><linearGradient id="sw-gradient-1" x1="0" x2="0" y1="1" y2="0"><stop stop-color="rgba(64.938, 62, 243, 1)" offset="0%" data-darkreader-inline-stopcolor="" style="--darkreader-inline-stopcolor:#1310a2;"/><stop stop-color="rgba(14.96, 11, 255, 1)" offset="100%" data-darkreader-inline-stopcolor="" style="--darkreader-inline-stopcolor:#0906c2;"/></linearGradient></defs><path style="transform:translate(0, 50px); opacity:0.9" fill="url(#sw-gradient-1)" d="M0,92L80,145.7C160,199,320,307,480,360.3C640,414,800,414,960,345C1120,276,1280,138,1440,92C1600,46,1760,92,1920,115C2080,138,2240,138,2400,115C2560,92,2720,46,2880,76.7C3040,107,3200,215,3360,230C3520,245,3680,169,3840,122.7C4000,77,4160,61,4320,92C4480,123,4640,199,4800,207C4960,215,5120,153,5280,122.7C5440,92,5600,92,5760,138C5920,184,6080,276,6240,306.7C6400,337,6560,307,6720,283.7C6880,261,7040,245,7200,245.3C7360,245,7520,261,7680,268.3C7840,276,8000,276,8160,230C8320,184,8480,92,8640,76.7C8800,61,8960,123,9120,153.3C9280,184,9440,184,9600,153.3C9760,123,9920,61,10080,38.3C10240,15,10400,31,10560,46C10720,61,10880,77,11040,138C11200,199,11360,307,11440,360.3L11520,414L11520,460L11440,460C11360,460,11200,460,11040,460C10880,460,10720,460,10560,460C10400,460,10240,460,10080,460C9920,460,9760,460,9600,460C9440,460,9280,460,9120,460C8960,460,8800,460,8640,460C8480,460,8320,460,8160,460C8000,460,7840,460,7680,460C7520,460,7360,460,7200,460C7040,460,6880,460,6720,460C6560,460,6400,460,6240,460C6080,460,5920,460,5760,460C5600,460,5440,460,5280,460C5120,460,4960,460,4800,460C4640,460,4480,460,4320,460C4160,460,4000,460,3840,460C3680,460,3520,460,3360,460C3200,460,3040,460,2880,460C2720,460,2560,460,2400,460C2240,460,2080,460,1920,460C1760,460,1600,460,1440,460C1280,460,1120,460,960,460C800,460,640,460,480,460C320,460,160,460,80,460L0,460Z"/><defs><linearGradient id="sw-gradient-2" x1="0" x2="0" y1="1" y2="0"><stop stop-color="rgba(62, 71.325, 243, 1)" offset="0%" data-darkreader-inline-stopcolor="" style="--darkreader-inline-stopcolor:#1017a2;"/><stop stop-color="rgba(56.287, 11, 255, 1)" offset="100%" data-darkreader-inline-stopcolor="" style="--darkreader-inline-stopcolor:#2906c2;"/></linearGradient></defs><path style="transform:translate(0, 100px); opacity:0.8" fill="url(#sw-gradient-2)" d="M0,276L80,276C160,276,320,276,480,299C640,322,800,368,960,329.7C1120,291,1280,169,1440,122.7C1600,77,1760,107,1920,107.3C2080,107,2240,77,2400,61.3C2560,46,2720,46,2880,84.3C3040,123,3200,199,3360,230C3520,261,3680,245,3840,245.3C4000,245,4160,261,4320,245.3C4480,230,4640,184,4800,168.7C4960,153,5120,169,5280,145.7C5440,123,5600,61,5760,92C5920,123,6080,245,6240,253C6400,261,6560,153,6720,153.3C6880,153,7040,261,7200,276C7360,291,7520,215,7680,222.3C7840,230,8000,322,8160,368C8320,414,8480,414,8640,352.7C8800,291,8960,169,9120,138C9280,107,9440,169,9600,161C9760,153,9920,77,10080,46C10240,15,10400,31,10560,69C10720,107,10880,169,11040,207C11200,245,11360,261,11440,268.3L11520,276L11520,460L11440,460C11360,460,11200,460,11040,460C10880,460,10720,460,10560,460C10400,460,10240,460,10080,460C9920,460,9760,460,9600,460C9440,460,9280,460,9120,460C8960,460,8800,460,8640,460C8480,460,8320,460,8160,460C8000,460,7840,460,7680,460C7520,460,7360,460,7200,460C7040,460,6880,460,6720,460C6560,460,6400,460,6240,460C6080,460,5920,460,5760,460C5600,460,5440,460,5280,460C5120,460,4960,460,4800,460C4640,460,4480,460,4320,460C4160,460,4000,460,3840,460C3680,460,3520,460,3360,460C3200,460,3040,460,2880,460C2720,460,2560,460,2400,460C2240,460,2080,460,1920,460C1760,460,1600,460,1440,460C1280,460,1120,460,960,460C800,460,640,460,480,460C320,460,160,460,80,460L0,460Z"/></svg>