<?xml version="1.0" standalone="no"?>
<svg xmlns:xlink="http://www.w3.org/1999/xlink" id="wave" style="transform:rotate(0deg); transition: 0.3s" viewBox="0 0 1440 100" version="1.1" xmlns="http://www.w3.org/2000/svg"><defs><linearGradient id="sw-gradient-0" x1="0" x2="0" y1="1" y2="0"><stop stop-color="rgba(29.084, 8.573, 143.758, 0.69)" offset="0%" data-darkreader-inline-stopcolor="" style="--darkreader-inline-stopcolor:rgba(28, 13, 116, 0.69);"/><stop stop-color="rgba(11, 89.693, 255, 1)" offset="100%" data-darkreader-inline-stopcolor="" style="--darkreader-inline-stopcolor:#0643c2;"/></linearGradient></defs><path style="transform:translate(0, 0px); opacity:1" fill="url(#sw-gradient-0)" d="M0,20L110.8,80L221.5,60L332.3,30L443.1,50L553.8,20L664.6,60L775.4,20L886.2,20L996.9,40L1107.7,10L1218.5,20L1329.2,10L1440,40L1550.8,50L1661.5,50L1772.3,0L1883.1,50L1993.8,50L2104.6,60L2215.4,50L2326.2,70L2436.9,40L2547.7,90L2658.5,80L2658.5,100L2547.7,100L2436.9,100L2326.2,100L2215.4,100L2104.6,100L1993.8,100L1883.1,100L1772.3,100L1661.5,100L1550.8,100L1440,100L1329.2,100L1218.5,100L1107.7,100L996.9,100L886.2,100L775.4,100L664.6,100L553.8,100L443.1,100L332.3,100L221.5,100L110.8,100L0,100Z"/><defs><linearGradient id="sw-gradient-1" x1="0" x2="0" y1="1" y2="0"><stop stop-color="rgba(31.899, 29.828, 157.418, 1)" offset="0%" data-darkreader-inline-stopcolor="" style="--darkreader-inline-stopcolor:#1f1d7e;"/><stop stop-color="rgba(11.79, 15.31, 41.302, 1)" offset="100%" data-darkreader-inline-stopcolor="" style="--darkreader-inline-stopcolor:#101226;"/></linearGradient></defs><path style="transform:translate(0, 50px); opacity:0.9" fill="url(#sw-gradient-1)" d="M0,70L110.8,70L221.5,40L332.3,50L443.1,0L553.8,60L664.6,30L775.4,30L886.2,70L996.9,20L1107.7,0L1218.5,30L1329.2,80L1440,80L1550.8,50L1661.5,60L1772.3,70L1883.1,40L1993.8,90L2104.6,90L2215.4,90L2326.2,40L2436.9,20L2547.7,80L2658.5,20L2658.5,100L2547.7,100L2436.9,100L2326.2,100L2215.4,100L2104.6,100L1993.8,100L1883.1,100L1772.3,100L1661.5,100L1550.8,100L1440,100L1329.2,100L1218.5,100L1107.7,100L996.9,100L886.2,100L775.4,100L664.6,100L553.8,100L443.1,100L332.3,100L221.5,100L110.8,100L0,100Z"/></svg>